<?xml version="1.0" encoding="UTF-8" standalone="no"?>
<!-- Created with Inkscape (http://www.inkscape.org/) -->

<svg
   version="1.1"
   id="svg1"
   width="3583.1868"
   height="3003.6934"
   viewBox="0 0 3583.1868 3003.6934"
   sodipodi:docname="vecteezy_frame-cartoon-cute-kawaii-doodle-coloring-page-drawing_10504704.eps"
   xmlns:inkscape="http://www.inkscape.org/namespaces/inkscape"
   xmlns:sodipodi="http://sodipodi.sourceforge.net/DTD/sodipodi-0.dtd"
   xmlns="http://www.w3.org/2000/svg"
   xmlns:svg="http://www.w3.org/2000/svg">
  <defs
     id="defs1" />
  <sodipodi:namedview
     id="namedview1"
     pagecolor="#ffffff"
     bordercolor="#000000"
     borderopacity="0.25"
     inkscape:showpageshadow="2"
     inkscape:pageopacity="0.0"
     inkscape:pagecheckerboard="0"
     inkscape:deskcolor="#d1d1d1">
    <inkscape:page
       x="0"
       y="0"
       inkscape:label="1"
       id="page1"
       width="3583.1868"
       height="3003.6934"
       margin="0"
       bleed="0" />
  </sodipodi:namedview>
  <g
     id="g1"
     inkscape:groupmode="layer"
     inkscape:label="1">
    <g
       id="group-R5">
      <path
         id="path2"
         d="m 3856.98,15565 c 155.06,79.7 310.12,159.3 469.79,241.4 -13.93,7.5 -19.37,11.7 -25.53,13.6 -139.45,43 -278.51,87.4 -418.95,126.9 -24.88,7 -59.34,0.7 -82.97,-11.8 -191.42,-100.4 -383.96,-199.1 -547.55,-344.4 -47.06,-41.8 -98.64,-79.7 -152.09,-113 -274.5,-171.1 -483.5,-404.7 -649.49,-678.9 -30.65,-50.6 -53.06,-107.1 -72.29,-163.3 -12.88,-37.7 -14.52,-80.1 45.38,-97.8 25.52,28.9 49.68,60.5 78.09,87.6 103.24,98.5 204.11,200 313.12,291.8 104.17,87.7 218.36,163.4 326.32,246.7 140.32,108.3 289.87,199.8 453.05,270.1 85.37,36.7 166.95,82.3 263.12,131.1 z M 21833.3,13384.2 c 340.7,-196.7 674.9,-404.1 985,-646.4 195.1,-152.5 414.8,-236.1 653.6,-281.5 102,-19.4 199.7,-3.1 292.3,40 77.8,36.3 147.1,92 164.7,176.8 20.1,97.1 22.3,199.4 -20.5,294.7 -83.6,185.7 -180.7,363.1 -303.5,527 -105.7,141 -205.9,286.6 -300.3,435.4 -84.6,133.4 -180,254.6 -298.3,360.2 -94.1,84 -185.2,173.6 -265.1,271 -108.6,132.4 -228.3,251.5 -362.9,356.3 -111,86.4 -211.1,182.8 -294.3,297.3 -92.9,127.8 -202.5,238.8 -343.6,314.9 -20.1,10.9 -39.9,25.7 -53.9,43.4 -40.8,51.1 -28.5,102.1 33.4,126.6 42.7,16.9 88.7,28.7 134.3,34.4 79.1,9.7 159.1,12.7 238.7,18.8 345.4,26.5 689.9,59.4 1030.8,124.1 255.2,48.4 512.8,88.7 756.6,181.6 326.6,124.3 650.6,255.6 975.2,385.3 148.7,59.4 293.7,126.1 423.9,221.8 99.3,73 203.6,139.2 302,213.4 106.2,80 211.9,161.7 311.2,250.1 126.9,112.8 244.2,236.5 371.3,349.2 109.3,96.9 192.6,211 258.4,339.8 42.4,83 84.2,166.4 128.6,248.4 39.4,72.9 51.6,149 46.2,231.4 -8.6,130.4 -68.2,234 -154.2,327.3 -50.6,54.9 -107.1,85.5 -184.7,77 -76,-8.3 -154,-2.6 -229.1,-15.2 -280.8,-47.4 -513.5,-195.9 -737,-361.4 -149.7,-111 -298.9,-222.7 -447.2,-335.5 -89.9,-68.5 -176.6,-141.1 -266.6,-209.4 -105.9,-80.3 -207.9,-168 -322.1,-234.5 -230,-134 -464,-262.3 -719.7,-344 -47.5,-15.1 -92.3,-38.6 -139.7,-54.1 -107.2,-35.3 -213.5,-75.7 -323.3,-100 -204.7,-45.3 -408.9,-99.3 -620.6,-98.7 -289.9,0.8 -580.4,-3.7 -869.6,12.1 -269.1,14.8 -537.8,48.9 -799.1,120.9 -334.1,92.2 -661,203 -973.1,358.2 -125.9,62.6 -243.6,130.5 -355.6,215.8 -134.7,102.6 -282.8,187.7 -425.9,279.1 -56.1,35.8 -113.3,70.2 -171.7,102.1 -301,164.2 -597.5,337.6 -905.3,487.7 -250.8,122.3 -508.3,234.2 -777.8,313 -47.8,14 -94,34 -140.4,52.4 -543.6,214.8 -1101.8,377.4 -1678.1,478.6 -328.4,57.6 -657.9,108.8 -990.8,125.9 -816.6,42 -1632.4,28 -2446,-59.8 -205.3,-22.1 -411.6,-39.9 -615.1,-73.7 -298.7,-49.5 -597.1,-103.4 -892.3,-170.6 -252.8,-57.6 -506.4,-121.2 -749.19,-210.5 -231.75,-85.2 -465,-161 -703.53,-222.3 -24.99,-6.4 -54.67,-9.8 -78,-2 -15.36,5 -37.04,41 -32.27,48.9 36.8,60.6 10.8,124.4 13.21,185.6 13.6,345.2 -43.54,676.3 -199.05,988.5 -64.51,129.5 -137.15,249.8 -247.02,347.5 -76.93,68.4 -142.04,149.9 -216.59,221.3 -59.87,57.2 -119.61,119.4 -190.71,159.1 -127.39,71.3 -263.68,126.5 -395.34,190.3 -32.06,15.6 -68.58,32.1 -89.45,58.8 -137.29,175.7 -267.94,356.6 -406.82,531 -72.28,90.7 -157.05,171.5 -235.97,257 -60.85,65.9 -130.26,126 -180.28,199.4 -121.2,177.7 -301.61,285.8 -457.55,418.7 -12.46,-5.8 -19.42,-7.4 -24.24,-11.5 -12.64,-10.8 -24.56,-22.5 -36.4,-34.2 -149.46,-147.6 -255.6,-321.7 -331.79,-517.4 -130.42,-335.2 -267.41,-667.8 -401.01,-1001.7 -8.44,-21.1 -16.39,-44.5 -15.9,-66.6 1.23,-55.2 -30.42,-86.9 -73.36,-109.5 -76.56,-40.4 -151.9,-85 -232.4,-115.7 -240.42,-91.6 -434.86,-256.3 -645.18,-395.8 -24.68,-16.4 -48.4,-37.1 -66.09,-60.7 -100.68,-134.1 -224.68,-244.7 -353.99,-349.2 -25.36,-20.5 -64.87,-30.6 -98.34,-31.8 -31.69,-1.2 -64.5,14.4 -95.98,25 -269.04,91 -545.67,149.6 -825.45,195.1 -95.21,15.5 -189.75,36.2 -285.44,47.2 -95.82,11.1 -192.68,17.5 -289.09,17.5 -92.08,-0.1 -123.03,-30.5 -119.64,-120.8 4.1,-109.4 8.22,-220.7 32.15,-326.8 37.25,-165 78.54,-331.4 141.52,-487.9 68.14,-169.2 164.16,-327.2 246.02,-491 46.08,-92.3 88.37,-186.5 131.93,-280 39.34,-84.4 72.72,-172.2 118.55,-253 48.57,-85.5 62.98,-170.3 48.8,-267.9 -29.63,-204 2.93,-403.8 52.82,-592.1 42.48,-17.3 74.7,-30.5 106.92,-43.6 -15.49,-33.4 -30.98,-66.8 -54.11,-116.6 19.35,-47.8 44.84,-112.4 71.73,-176.5 20.39,-48.6 35.42,-98.3 105.05,-104 38.13,-3.2 53.49,-36.9 24.29,-74.5 -7.93,-10.1 -14.45,-21.4 -25.9,-38.7 150.88,-237.3 350.87,-417.4 612.54,-521.4 155.13,-61.7 319.68,-91 486.8,-105.4 106.93,-9.2 213.16,-26.5 343.5,-43.2 -42.08,-28.8 -61.9,-45.3 -84.16,-57.2 -140.56,-75.2 -281.63,-149.5 -422.59,-223.9 -238.51,-126 -474.71,-256.7 -716.51,-376 -144.23,-71.2 -282.44,-149 -409.77,-247 -108.23,-83.4 -218.03,-164.7 -328,-245.8 -204.66,-150.8 -362.59,-342.4 -490.12,-560.4 -46.28,-79.1 -66.64,-165.1 -69.93,-257.4 -3.06,-86 35.14,-144 110.07,-171.3 71.13,-25.9 146.82,-47.4 221.82,-52.9 219.03,-16.2 432.42,10.3 631.61,112.5 35.42,18.2 73.56,31.3 111.04,45.2 338.6,125 645.85,315.3 971.75,466.7 3,1.4 5.57,3.7 8.54,5.2 116.47,57.1 231.41,117.7 349.74,170.8 352.99,158.2 718.39,284.2 1084.94,406 287.43,95.6 574.73,194.4 867.81,269.3 341.62,87.4 687.79,159.8 1035.05,221.5 416.29,73.9 835.41,132.5 1254.06,192.4 455.19,65.2 911.42,125.5 1371.2,145 599.3,25.4 1198.8,51.2 1798.5,60.7 893.8,14.2 1785.8,-38.6 2675.3,-122.7 387.6,-36.6 772.9,-99.2 1158.3,-156.6 97.2,-14.5 189.7,-58.1 286,-81.3 265.4,-63.8 533,-118.6 797.2,-186.8 293.3,-75.8 582,-169.6 875.9,-242.3 315.4,-77.9 611.2,-208 913.7,-320.4 180.8,-67.2 359.5,-140.2 539.4,-209.7 257.8,-99.4 519,-190.4 772.9,-298.8 345.8,-147.6 687,-306.2 1028.2,-464.4 108.2,-50.2 211.2,-112.3 314.6,-172.1 92.1,-53.3 181.5,-111.1 284.9,-174.1 z m 3491.8,-8385.9 c 7.2,25.7 14.8,51.3 21.7,77 108,405.4 232.5,806.6 300.6,1221.8 30.1,183.9 71.5,366.9 87.8,552.1 44.3,502.3 38.1,1005.9 -1.5,1508 -28.2,358.8 -85.2,714 -197.1,1058.7 -86.4,266 -161.9,535.5 -247.4,801.9 -60.8,189.8 -109.5,384.9 -216.7,557 -193.8,311.1 -383.8,624.5 -582.1,932.6 -105.3,163.6 -240.5,301.3 -406.8,407.3 -75.5,48.2 -146.9,104.4 -213.4,164.5 -44.7,40.3 -82.3,49.5 -141.8,32.8 -72.3,-20.2 -152.1,-35.4 -225.4,-26.4 -288.3,35.4 -551.8,132.5 -791.8,305.9 -283.1,204.7 -577.6,394.2 -873.6,580.2 -151.9,95.5 -316.5,170.6 -457,285.2 -30.5,25 -67.1,44 -103.3,60.3 -245.9,110.7 -492.6,219.5 -738.7,329.9 -112.3,50.4 -223.3,103.7 -335.5,154.5 -115.1,52.1 -228.9,108.3 -346.8,153.2 -366.9,139.7 -747.8,238.1 -1107.5,401.2 -404,183.3 -834.7,294 -1262.2,409.9 -318,86.3 -639.9,159.5 -954.8,255.7 -211.8,64.7 -427.4,99.6 -643.9,135.8 -539.4,90.2 -1081.6,157.1 -1627.8,185.3 -565.7,29.3 -1131.6,67.8 -1697.7,71.3 -639.5,4 -1279.3,-22.6 -1918.8,-44 -262.8,-8.8 -526.7,-25.8 -787.01,-61.8 -550.93,-76.1 -1105.33,-127.3 -1652.51,-231.3 -353.32,-67.1 -709.36,-119.9 -1062.43,-188.3 -373.47,-72.2 -733.29,-195.4 -1093.54,-315.2 -432.99,-143.9 -863.9,-293.8 -1281.23,-479.6 -45.61,-20.3 -90.67,-42.1 -134.82,-65.4 -400.21,-211.5 -799.22,-423.9 -1218.88,-597.3 -260.45,-107.6 -522.61,-152.3 -799.57,-121.7 -43.12,4.8 -69.37,-6.6 -91.68,-41 -77.82,-120.3 -156.21,-239.4 -202.87,-377.2 -84.24,-248.8 -114.86,-505.9 -127.75,-766 -3.51,-70.9 -18.73,-129.1 -85.09,-168.5 -248.78,-147.5 -436.85,-356.6 -596.06,-594.6 -164.83,-246.4 -333.52,-490.2 -494.68,-739 -59.3,-91.5 -113.07,-189.8 -149.929,-292.1 -86.934,-241.1 -165.578,-485.3 -241.43,-730.2 C 485.84,9354.3 388.418,8897.6 328.891,8435 c -51.84,-402.8 -88.297,-809.1 -74.293,-1216.2 7.078,-205.6 32.433,-411.8 66.285,-615 71.844,-431.3 194.844,-849.6 339.32,-1262.2 101.836,-290.9 224.512,-570 397.597,-825.9 149.36,-220.7 295.15,-444 448.48,-661.9 43.1,-61.3 101.66,-115.6 162.88,-159.5 135.17,-96.8 272.68,-191.9 417.18,-273.7 62.02,-35 85.09,-78.4 96.2,-138.5 24.84,-134.3 53.48,-268.1 71.54,-403.3 52.99,-396.8 197.4,-750.3 465.89,-1052.8 83.33,-93.8 150.19,-203.8 215.48,-311.8 80.24,-132.9 174.31,-252.5 294.48,-350.1 137.07,-111.3 273.3,-224.299 417.11,-326.401 77.57,-55.097 166.8,-98.601 256.76,-130.398 182.86,-64.602 372.8,-100.5 567.91,-102.903 209.94,-2.699 419.88,-8.699 629.8,-8.097 576.71,1.801 1152.57,-3.301 1725.95,-80.903 296.9,-40.097 596.55,-59.398 894.49,-92.296 420.51,-46.403 839.94,-103.602 1261.02,-143.704 564.16,-53.597 1130.53,-78.199 1697.13,-81.898 1016.4,-6.699 2033,-7.5 3049.4,-4.801 1186.3,3.301 2373.3,-12.199 3557.4,83.5 385.2,31.199 770.9,60.602 1154.4,107.203 482.6,58.696 962,145.297 1445,199.496 506.3,56.801 1015.3,89.5 1523.1,133.004 286.7,24.598 569.2,70 834.7,186.598 192.1,84.301 382.1,173.5 571.1,264.7 71.5,34.6 145.3,71.7 204.4,123.3 211,184.1 416.5,375.3 579.7,605 53.4,75.1 103.1,157.4 133.2,243.8 106.6,305.8 140.4,622.3 112,945.1 -2.9,33.2 -7,66.3 -9.9,99.5 -4,46.3 14.1,80.2 47.5,114.3 55.5,56.4 118.6,93.5 193.5,116.7 243.8,75.6 443.2,207.9 574.7,435.5 51.3,88.6 115.8,172.5 187,246.3 243,251.8 385.2,556.4 487.8,901.6 z M 17892.6,139.098 c -334.4,-28.399 -659.3,-65.3988 -985.3,-81.3988 -465.9,-23 -932.6,-40 -1399,-42.8984 C 13998.4,5.39844 12488.4,0.800781 10978.5,0 10315.1,-0.300781 9651.69,18 8990.9,79.6992 8569.74,119 8150.44,177.898 7730.12,226.402 c -228.33,26.297 -456.98,50 -685.59,73.797 -228.63,23.801 -457.05,51 -686.2,68 -192.57,14.301 -386.03,20.301 -579.18,22.403 -456.58,4.796 -913.56,-5.102 -1369.72,10.3 -369.19,12.399 -717.51,106.899 -1007.26,357.297 -108.36,93.602 -223.93,178.899 -333.13,271.601 -122.98,104.4 -218.94,231.1 -304.51,368.1 -79.22,126.9 -166.51,249.4 -258.3,367.5 -177.87,229 -326.25,470.9 -379.63,761.5 -45.88,249.6 -73.98,500.8 -70.24,755 0.39,26.2 0.05,52.4 0.05,84.1 -47.93,9.8 -93.96,14.9 -137.22,28.8 -117.02,37.4 -234.77,73.8 -348.62,119.6 -103.95,41.8 -187.28,115.3 -251.72,207.2 -160.79,229.1 -321.518,458.2 -479.252,689.4 -166.231,243.7 -286.239,509.8 -389.293,786.1 -172.91,463.4 -304.071,937.4 -390.2777,1424.1 -67.30074,379.9 -75.1328,762 -37.8281,1145.5 22.2617,228.9 33.5703,459.3 66.8672,686.4 69.6286,475.1 172.9536,943.6 315.0856,1402.6 77.817,251.3 158.524,502.1 250.028,748.6 44.707,120.4 108.695,236 178.644,344.3 155.41,240.6 324.446,472.3 479.656,713.1 133.54,207.1 303.19,379.8 484.05,543 41.41,37.4 91.57,67.3 141.91,92 44.33,21.8 61.02,49.1 65.84,98.5 14.2,145.8 27.96,292.5 56.22,436 48.66,247.1 124.77,484.4 305.61,672.8 13.21,13.8 22.99,30.9 38.37,51.9 -29,18.6 -53.8,33.7 -77.71,50.2 -118.39,81.2 -182.94,188.2 -173.51,337.5 7.51,118.8 34.44,230.1 94.28,333.1 19.9,34.3 39.23,68.9 59.72,104.9 -13.11,12.1 -21.59,22.4 -32.25,29.4 -90.61,59.7 -116.01,147.9 -88.7,244.8 24.08,85.5 57.45,171.3 102.89,247.3 180.45,301.9 413.48,555.1 715.03,741.4 31.11,19.2 61.75,40.2 88.98,64.5 171.13,152.3 367.96,262.6 590.66,359.6 -69.85,60.9 -133.58,116.5 -206.28,179.9 -43.86,-51 -82.48,-99.8 -125.18,-144.7 -98.46,-103.7 -197.29,-207.2 -299.65,-306.9 -25.58,-25 -65.1,-35.6 -99.72,-53.6 -34.14,57.1 -5.99,88.5 18.67,118.6 132.6,162.3 265.98,323.9 406.25,494.5 -28.71,48.1 -62.19,104.2 -97.96,164.2 -18.59,-4.8 -35.25,-6 -48.83,-13.1 -188.83,-98.9 -377.2,-198.6 -565.82,-297.8 -31.04,-16.3 -66.89,-52.3 -97.04,-12.9 -30.37,39.6 13.19,68.9 38.69,89.8 64.09,52.7 130.05,104.3 200.61,147.7 127.38,78.2 258.66,150.1 396.88,229.5 -33.54,84.1 -66.21,166.1 -101.42,254.5 -188.1,-49 -374.59,-81.3 -550.91,-153.1 -58.54,-23.8 -118.44,-44.9 -179.08,-62.6 -27.93,-8.2 -59.79,-9.7 -88.58,-5.5 -15.6,2.3 -36.88,21 -40.28,35.9 -3.44,15 8.76,37 20.23,50.9 9.78,11.9 28.05,17 42.91,24.4 212.22,105.9 428.93,199.4 664.52,241 22.42,4 44.27,11.3 74.15,19 -11.77,72 -24.27,139.5 -33.64,207.5 -24.21,175.6 -32.86,351 -0.16,527.2 5.43,29.2 -5.65,65.7 -19.59,93.7 -172.41,345.5 -350.21,688.4 -519.38,1035.5 -107.83,221.3 -141.73,463.8 -174.7,704.9 -6.25,45.7 -2.1,93.4 1.8,139.8 17.34,206.2 119.67,305.2 325.62,318.4 316.33,20.4 623.72,-39.6 929.28,-108.1 178.17,-39.9 353.34,-93.1 549.93,-145.8 56.72,58.8 132.38,124.8 192.69,202.7 95.32,123 213.47,216.7 335.19,311.3 196.97,153.1 411.76,269.9 642.71,358.9 81.07,31.2 121.91,83.3 152.01,165.8 123.33,337.8 257.46,671.8 385.48,1008 88.66,232.8 226.38,429.2 421.55,584.6 94.6,75.3 143.82,73.3 237.14,-6.1 38.04,-32.3 74.69,-67.5 116.87,-93.5 138.98,-85.6 243.58,-205.2 344.11,-330.7 47.66,-59.4 104.24,-111.7 156.35,-167.7 92.89,-99.7 190.17,-195.8 276.88,-300.6 93.35,-112.9 178.53,-232.7 263.55,-352.1 41.83,-58.8 63.63,-137.2 115.84,-181.7 49.83,-42.4 127.72,-51.4 192.58,-76.9 30.93,-12.2 59.36,-30.8 90.44,-42.4 165.76,-62 306.49,-159.7 424.04,-291.6 10.33,-11.6 24.03,-20.2 41.11,-34.3 22.38,31.4 41.43,57.9 60.28,84.5 142.44,201.3 284.07,403.1 427.99,603.3 24.89,34.7 57.36,64.9 90.61,91.9 11.76,9.6 41.88,10.9 53.38,2.3 11.12,-8.3 15.84,-36.2 11.32,-52 -8.06,-28.3 -24.53,-54.3 -38.64,-80.7 -124.77,-233 -282.92,-443.6 -440.65,-654.5 -21.56,-28.8 -41.65,-58.8 -64.07,-90.5 72.13,-65.6 140.49,-127.8 215.99,-196.5 11.74,11.3 36.13,32 57.55,55.5 168.68,184.9 371.72,322.8 593.81,434.4 85,42.7 97.26,43.1 171.58,20.2 12.61,-54.5 -26.73,-85 -60.59,-114.3 -83.16,-71.9 -169.15,-140.6 -253.67,-211 -130.58,-108.7 -260.97,-217.7 -391.13,-326.9 -12.4,-10.4 -22.5,-23.6 -35.78,-37.7 29.96,-72.2 59.09,-142.4 88.84,-214 119.19,53.5 232.06,109.2 348.72,155.3 114.32,45.1 231.86,82.6 349.38,119 37.24,11.5 78.95,11.6 118.6,11.5 39.05,-0.1 73.39,-15.5 80.86,-59.4 8.63,-50.6 -32.46,-58.2 -66.6,-71.1 -214.92,-81.1 -429.95,-162 -644.46,-244.2 -43.14,-16.5 -84.14,-38.6 -133.81,-61.8 90.28,-270.7 92.41,-545.2 74.51,-831.3 121.78,21.2 236.93,55.2 344.91,101.6 400.04,171.6 818.64,274.4 1241.34,372.1 501.9,116 1010.1,179.6 1520.5,227.7 348,32.8 698.5,44.5 1048.2,52.4 336.4,7.6 673.3,4 1009.7,-5.3 390.3,-10.6 776.4,-63.2 1161.5,-127.8 613.7,-102.8 1207.4,-273.3 1785,-502.7 49.5,-19.7 99.9,-37.2 150.3,-54.4 388.6,-132.5 766.7,-288.2 1118.8,-502.1 34.1,-20.7 69.5,-40.3 106.5,-55.1 273.9,-109.2 518.5,-272.9 772,-419.5 117.8,-68.1 229.7,-148.5 336.5,-233.2 236.9,-187.8 510,-301.1 793.5,-389.4 209.5,-65.2 423,-122.9 638.7,-161.4 245.4,-43.8 493.1,-79.6 744.8,-77.1 189.8,1.9 379.8,-7.3 569.5,-15.5 219.5,-9.6 430,43.1 642.5,83.7 124.9,23.9 246.4,56.5 361.6,111.9 47.9,23 97.9,43 148.7,58.6 247.5,76.1 467.2,210.7 691.3,334.2 95,52.3 176.8,129.1 263.3,196.4 89.2,69.4 175.4,142.7 265.6,210.9 154,116.4 309.4,230.8 465.3,344.7 238,174 486.1,331.5 781.9,384.4 120.3,21.5 245.4,18.9 368.4,20.9 37.9,0.6 82.5,-10.4 113.2,-31.7 242.9,-168.7 374.4,-420.7 303.4,-724.7 -4.5,-19.4 -9.8,-39.3 -18.8,-56.8 -89.4,-174.8 -177.9,-350 -270.7,-523 -24.8,-46.3 -59.1,-89.7 -96.4,-127 -283.1,-282.2 -571.3,-555.2 -898.7,-791.1 -366,-263.7 -770,-432.7 -1186.3,-585.1 -59.5,-21.8 -121.1,-38.2 -179.2,-62.8 -449.3,-190.7 -925.5,-271.9 -1404.1,-339.4 -230.4,-32.4 -463.8,-44.4 -695.8,-66.1 -29.2,-2.7 -58.1,-8.3 -101,-14.6 22.7,-24 36.7,-39.2 51.1,-54.1 57.9,-59.8 114.5,-120.9 174,-179 85.6,-83.5 168.2,-171.1 261,-245.7 146.1,-117.3 283.7,-241 403.3,-386.4 75.8,-92.2 162.3,-176.8 251.5,-256.5 128.3,-114.5 233.3,-244.8 322.1,-392 89.3,-147.9 187,-291.3 287.8,-431.8 123.3,-171.7 225,-354.6 300.6,-551.2 25.9,-67.4 43.4,-141.1 48.2,-213 10.6,-157 -4,-309.7 -159.5,-419.9 64,-41.7 113.5,-79.2 167.6,-108.3 301.2,-161.9 509.7,-411.8 680,-701.2 106.3,-180.9 215.8,-360.5 333.5,-534.1 158.8,-234.3 271.1,-488.3 352.9,-757.8 95.7,-315.5 197,-629.4 289.8,-945.8 103.6,-353 165.2,-715.2 184.3,-1081.6 19.3,-369.2 21.8,-739.6 20.8,-1109.4 -0.8,-307.1 -51.5,-609.8 -103.3,-912.5 -66.6,-388.8 -179.3,-765.1 -286.3,-1143.1 -55.3,-195.1 -119.8,-388.2 -190.7,-578.2 -72.8,-195.2 -188.7,-366.1 -322.7,-525.8 -94.1,-112.1 -185.8,-227.1 -268.9,-347.4 -129.7,-187.7 -288.5,-329.2 -516.6,-383.7 -83.1,-19.8 -163,-53.2 -248.6,-81.8 52.2,-209.3 48.2,-414.9 19.8,-620 -15,-108.7 -37.8,-216.8 -64.4,-323.3 -52.5,-209.7 -148.2,-396.9 -286.8,-565.3 -166,-201.7 -350.1,-384.8 -547.2,-554.3 -76.9,-66.2 -170.7,-116.1 -263.1,-160.401 C 22704.7,906.598 22513,820.5 22319.1,740.301 22001.5,608.902 21666.2,561 21325.3,536.199 20886.8,504.301 20448.9,463.102 20010.7,425.5 19458.9,378.199 18916.6,265.102 18368.8,189.598 c -155,-21.399 -311.4,-33.399 -476.2,-50.5"
         style="fill:#ffffff;fill-opacity:1;fill-rule:nonzero;stroke:none"
         transform="matrix(0.13333333,0,0,-0.13333333,0,3003.6933)" />
      <path
         id="path3"
         d="m 5032.69,18232.9 c 22.97,-33.4 45.19,-59.3 59.03,-89.2 96.28,-207.8 58.27,-332.7 -110.92,-449.7 -135.08,-93.5 -348.65,-77.7 -485.44,35.1 -106.5,87.8 -144.3,270.5 -78,413.4 19.9,42.9 53.69,89 93.59,110.9 77.84,42.7 162.33,77.1 247.99,100.8 115.48,31.9 196.06,-38 273.75,-121.3"
         style="fill:#ffffff;fill-opacity:1;fill-rule:nonzero;stroke:none"
         transform="matrix(0.13333333,0,0,-0.13333333,0,3003.6933)" />
      <path
         id="path4"
         d="m 6724.2,19709.8 c 56.02,30 104.42,59.7 156.29,80.9 98.14,40 188.74,22.5 268.58,-47.9 164.86,-145.4 176.33,-392.5 23.45,-548.7 -76.38,-78 -168.8,-131.6 -278.95,-138.8 -43.16,-2.8 -96.83,7.2 -130.53,32.1 -199.55,146.9 -252.83,461.8 -38.84,622.4"
         style="fill:#ffffff;fill-opacity:1;fill-rule:nonzero;stroke:none"
         transform="matrix(0.13333333,0,0,-0.13333333,0,3003.6933)" />
      <path
         id="path5"
         d="m 6130.04,17920.4 c 13.88,83.6 26.34,158.4 39.59,238.1 -75.1,32.3 -148.74,61.7 -220.36,95.3 -99.12,46.6 -110.26,137.6 -20.17,200.2 62.19,43.2 131.99,77.1 201.82,107.2 75.05,32.3 122.39,6.4 139.82,-73.3 13.43,-61.5 21.25,-124.5 26.79,-187.3 4.56,-51.7 24,-87.5 75.22,-104.6 69.01,-23.1 137.21,-48.6 205.88,-72.8 37.53,-13.2 76.34,-23.3 112.65,-39.2 34.94,-15.2 65.58,-39.9 51.03,-84.1 -14.39,-43.8 -53.31,-49.8 -90.5,-38.1 -104.14,32.9 -207.11,69.5 -310.43,104.9 -12.2,4.2 -23.77,10.2 -48.83,21.2 -6.01,-65.1 -7.74,-123.5 -17.59,-180.6 -13.48,-78.1 -30.89,-155.8 -51.17,-232.5 -8.51,-32.2 -28.96,-64 -71.31,-53.5 -35.97,8.8 -40.95,41.4 -39.37,71.9 3.76,72.9 10.17,145.7 16.93,227.2"
         style="fill:#ffffff;fill-opacity:1;fill-rule:nonzero;stroke:none"
         transform="matrix(0.13333333,0,0,-0.13333333,0,3003.6933)" />
      <path
         id="path6"
         d="m 7680.43,19243.6 c 3.66,47.2 -23.31,108.5 41.17,110.9 51.66,1.9 44.83,-57.5 51.48,-93.9 11.8,-64.5 18.06,-130.1 26.32,-192.9 -49.05,-19.8 -67.56,6.9 -78.09,34.2 -16.66,43.2 -26.81,88.9 -40.88,141.7"
         style="fill:#ffffff;fill-opacity:1;fill-rule:nonzero;stroke:none"
         transform="matrix(0.13333333,0,0,-0.13333333,0,3003.6933)" />
      <path
         id="path7"
         d="m 7822.71,19404.3 c -2.52,42.4 -17.03,81.2 36.24,109.1 85.41,-78.9 79.63,-182.2 80.14,-294 -90.47,34.1 -92.22,112.2 -116.38,184.9"
         style="fill:#ffffff;fill-opacity:1;fill-rule:nonzero;stroke:none"
         transform="matrix(0.13333333,0,0,-0.13333333,0,3003.6933)" />
      <path
         id="path8"
         d="m 4675.73,17309.8 c 21.24,-93.5 39.84,-179.6 59.79,-272 -23.98,1.5 -37.1,-1.6 -41.2,3.1 -65.2,75.2 -73.18,166.4 -66.24,259.7 1.58,21.2 15.79,49.9 47.65,9.2"
         style="fill:#ffffff;fill-opacity:1;fill-rule:nonzero;stroke:none"
         transform="matrix(0.13333333,0,0,-0.13333333,0,3003.6933)" />
      <path
         id="path9"
         d="m 4415.62,17155 c 3.22,32 7.04,55.7 10.85,79.4 8.57,0.1 17.14,0.2 25.7,0.3 52.19,-87.3 54.64,-183.9 45.99,-290.3 -63.03,50.7 -66.17,59 -82.54,210.6"
         style="fill:#ffffff;fill-opacity:1;fill-rule:nonzero;stroke:none"
         transform="matrix(0.13333333,0,0,-0.13333333,0,3003.6933)" />
      <path
         id="path10"
         d="m 8179.26,19517.4 c 12.65,-59.3 22.84,-111 34.01,-167.7 -83.97,42.6 -125.68,144.6 -112.33,263.8 59.03,-1.2 58.2,-53.1 78.32,-96.1"
         style="fill:#ffffff;fill-opacity:1;fill-rule:nonzero;stroke:none"
         transform="matrix(0.13333333,0,0,-0.13333333,0,3003.6933)" />
      <path
         id="path11"
         d="m 4797.06,17281.2 c -4.12,20.1 -7.03,32.9 -8.8,45.8 -4.03,29.5 -8.5,67.1 30.24,67.4 16.56,0.2 44.61,-37 47.95,-60 7.35,-50.6 2.28,-103 2.28,-161.8 -52.13,19.2 -51.3,67.2 -71.67,108.6"
         style="fill:#ffffff;fill-opacity:1;fill-rule:nonzero;stroke:none"
         transform="matrix(0.13333333,0,0,-0.13333333,0,3003.6933)" />
    </g>
  </g>
</svg>
